<svg
xmlns="http://www.w3.org/2000/svg"
width="23"
height="23"
viewBox="0 0 23 23"
fill="none"
>
<path
  d="M20.1864 17.3861C19.6102 16.8724 19.1057 16.2835 18.6865 15.6352C18.2289 14.7404 17.9547 13.7632 17.8798 12.7609V9.8089C17.8838 8.23467 17.3127 6.71317 16.274 5.53028C15.2352 4.34739 13.8003 3.58453 12.2388 3.38503V2.61416C12.2388 2.40258 12.1547 2.19967 12.0051 2.05006C11.8555 1.90046 11.6526 1.81641 11.441 1.81641C11.2294 1.81641 11.0265 1.90046 10.8769 2.05006C10.7273 2.19967 10.6432 2.40258 10.6432 2.61416V3.39698C9.09569 3.61086 7.67809 4.37834 6.65299 5.55725C5.62789 6.73617 5.06477 8.24664 5.06792 9.8089V12.7609C4.99308 13.7632 4.71881 14.7404 4.2612 15.6352C3.84941 16.282 3.35301 16.8708 2.7852 17.3861C2.72146 17.4421 2.67038 17.511 2.63534 17.5883C2.60031 17.6656 2.58214 17.7494 2.58203 17.8343V18.647C2.58203 18.8054 2.64499 18.9574 2.75706 19.0695C2.86912 19.1816 3.02112 19.2445 3.1796 19.2445H19.792C19.9505 19.2445 20.1025 19.1816 20.2146 19.0695C20.3266 18.9574 20.3896 18.8054 20.3896 18.647V17.8343C20.3895 17.7494 20.3713 17.6656 20.3363 17.5883C20.3013 17.511 20.2502 17.4421 20.1864 17.3861ZM3.82498 18.0494C4.38096 17.5123 4.87048 16.9104 5.28305 16.2567C5.85947 15.176 6.19579 13.9835 6.26903 12.7609V9.8089C6.24534 9.10857 6.36281 8.41063 6.61446 7.75665C6.86611 7.10266 7.24679 6.506 7.73383 6.0022C8.22087 5.4984 8.80431 5.09776 9.44941 4.82414C10.0945 4.55051 10.7881 4.4095 11.4888 4.4095C12.1895 4.4095 12.8831 4.55051 13.5282 4.82414C14.1733 5.09776 14.7567 5.4984 15.2438 6.0022C15.7308 6.506 16.1115 7.10266 16.3632 7.75665C16.6148 8.41063 16.7323 9.10857 16.7086 9.8089V12.7609C16.7818 13.9835 17.1181 15.176 17.6946 16.2567C18.1071 16.9104 18.5966 17.5123 19.1526 18.0494H3.82498Z"
  fill="white"
/>
<path
  d="M11.5116 21.2414C11.8881 21.2327 12.2493 21.0912 12.5315 20.8418C12.8136 20.5925 12.9985 20.2514 13.0534 19.8789H9.91016C9.96661 20.2615 10.1601 20.6106 10.4547 20.8613C10.7493 21.1119 11.1249 21.247 11.5116 21.2414Z"
  fill="white"
/>
</svg>
