<svg xmlns="http://www.w3.org/2000/svg" width="29" height="29" viewBox="0 0 29 29" fill="none">
  <mask id="mask0_3926_9248" style="mask-type:luminance" maskUnits="userSpaceOnUse" x="0" y="0" width="29" height="29">
    <rect width="28.6833" height="28.6833" fill="white"/>
  </mask>
  <g mask="url(#mask0_3926_9248)">
    <path d="M12.2534 7.03252L12.5861 11.9804L12.7513 14.4672C12.7531 14.723 12.7931 14.977 12.8704 15.2212C13.0699 15.6952 13.5499 15.9964 14.072 15.9753L22.0283 15.4549C22.3729 15.4492 22.7056 15.5781 22.9532 15.8132C23.1596 16.009 23.2929 16.2653 23.335 16.5409L23.3491 16.7082C23.0198 21.2673 19.6714 25.07 15.1217 26.0516C10.572 27.0331 5.90655 24.9596 3.65832 20.9566C3.01017 19.7936 2.60533 18.5154 2.46757 17.1968C2.41002 16.8064 2.38468 16.4122 2.39179 16.0178C2.38468 11.1299 5.86545 6.90419 10.7379 5.88547C11.3243 5.79415 11.8992 6.1046 12.1344 6.63955C12.1952 6.76344 12.2353 6.89612 12.2534 7.03252Z" fill="white"/>
    <path opacity="0.4" d="M26.2926 11.7269L26.2842 11.7659L26.2601 11.8225L26.2634 11.978C26.251 12.1839 26.1714 12.3821 26.0344 12.5422C25.8916 12.709 25.6965 12.8225 25.4818 12.8666L25.3508 12.8845L16.1712 13.4794C15.8658 13.5095 15.5618 13.411 15.3348 13.2085C15.1455 13.0397 15.0246 12.8119 14.9904 12.5664L14.3743 3.4001C14.3635 3.36911 14.3635 3.33551 14.3743 3.30451C14.3826 3.05185 14.4939 2.81302 14.6831 2.64139C14.8722 2.46976 15.1236 2.37962 15.3809 2.39112C20.8307 2.52976 25.4109 6.44858 26.2926 11.7269Z" fill="white"/>
  </g>
</svg>
