<svg xmlns="http://www.w3.org/2000/svg" width="29" height="30" viewBox="0 0 29 30" fill="none">
  <path fill-rule="evenodd" clip-rule="evenodd" d="M7.17107 13.8973V11.029C7.17107 7.06865 10.3816 3.85815 14.3419 3.85815C18.3022 3.85815 21.5127 7.06865 21.5127 11.029V13.8973C23.0969 13.8973 24.3811 15.1815 24.3811 16.7657V23.9365C24.3811 25.5206 23.0969 26.8048 21.5127 26.8048H7.17107C5.58693 26.8048 4.30273 25.5206 4.30273 23.9365V16.7657C4.30273 15.1815 5.58693 13.8973 7.17107 13.8973ZM18.6444 11.029V13.8973H10.0394V11.029C10.0394 8.65278 11.9657 6.72649 14.3419 6.72649C16.7181 6.72649 18.6444 8.65278 18.6444 11.029Z" fill="#73777B" fill-opacity="0.69"/>
</svg>
