<svg xmlns="http://www.w3.org/2000/svg" width="14" height="17" viewBox="0 0 14 17" fill="none">
  <path fill-rule="evenodd" clip-rule="evenodd" d="M0.429688 4.12249C0.429688 2.34729 1.88476 0.908203 3.67969 0.908203H8.55469V4.12249C8.55469 5.89769 10.0098 7.33677 11.8047 7.33677H13.4297V13.7653C13.4297 15.5405 11.9746 16.9796 10.1797 16.9796H3.67969C1.88476 16.9796 0.429688 15.5405 0.429688 13.7653V4.12249ZM3.67969 8.14035C3.23096 8.14035 2.86719 8.50012 2.86719 8.94392C2.86719 9.38772 3.23096 9.74749 3.67969 9.74749H5.30469C5.75342 9.74749 6.11719 9.38772 6.11719 8.94392C6.11719 8.50012 5.75342 8.14035 5.30469 8.14035H3.67969ZM3.67969 11.3546C3.23096 11.3546 2.86719 11.7144 2.86719 12.1582C2.86719 12.602 3.23096 12.9618 3.67969 12.9618H6.92969C7.37842 12.9618 7.74219 12.602 7.74219 12.1582C7.74219 11.7144 7.37842 11.3546 6.92969 11.3546H3.67969ZM10.7336 2.67509L10.6273 4.25337C10.5946 4.73848 11.0015 5.14096 11.492 5.10862L13.0878 5.0034C13.7843 4.95747 14.1019 4.12158 13.6083 3.63339L12.1189 2.16033C11.6253 1.67215 10.7801 1.98622 10.7336 2.67509Z" fill="white"/>
</svg>