<svg xmlns="http://www.w3.org/2000/svg" width="16" height="14" viewBox="0 0 16 14" fill="none">
  <path fill-rule="evenodd" clip-rule="evenodd" d="M9.55469 3.72991C9.55469 5.50511 8.09961 6.9442 6.30469 6.9442C4.50976 6.9442 3.05469 5.50511 3.05469 3.72991C3.05469 1.95471 4.50976 0.515625 6.30469 0.515625C8.09961 0.515625 9.55469 1.95471 9.55469 3.72991ZM6.30469 7.74777C3.16357 7.74777 0.617188 9.54662 0.617188 11.7656C0.617188 12.6532 1.33673 13.3728 2.22433 13.3728H10.385C11.2726 13.3728 11.9922 12.6532 11.9922 11.7656C11.9922 9.54662 9.44581 7.74777 6.30469 7.74777ZM12.801 2.12241C13.2498 2.12241 13.6136 2.48219 13.6136 2.92599V3.72956H14.4262C14.8749 3.72956 15.2387 4.08933 15.2387 4.53313C15.2387 4.97693 14.8749 5.3367 14.4262 5.3367H13.6136V6.14027C13.6136 6.58407 13.2498 6.94384 12.801 6.94384C12.3522 6.94384 11.9884 6.58407 11.9884 6.14027V5.3367H11.1759C10.7271 5.3367 10.3633 4.97693 10.3633 4.53313C10.3633 4.08933 10.7271 3.72956 11.1759 3.72956H11.9884V2.92599C11.9884 2.48219 12.3522 2.12241 12.801 2.12241Z" fill="white"/>
</svg>