<svg xmlns="http://www.w3.org/2000/svg" width="18" height="17" viewBox="0 0 18 17" fill="none">
  <path fill-rule="evenodd" clip-rule="evenodd" d="M13.5979 3.83054L9.51237 0.329059C9.32163 0.161846 9.08082 0.0762984 8.83875 0.076172C8.67312 0.076086 8.5069 0.115992 8.35571 0.197095C8.28834 0.233144 8.22433 0.27717 8.16514 0.329059L4.07962 3.83054C3.65051 4.19831 3.60078 4.84431 3.96855 5.27342C4.33632 5.70253 4.98232 5.75226 5.41143 5.38449C6.3561 4.57487 7.8154 5.2461 7.8154 6.49024V11.2492C7.8154 11.8144 8.27354 12.2725 8.83869 12.2725C9.40384 12.2725 9.86198 11.8144 9.86198 11.2492L9.86198 6.4903C9.86198 5.24609 11.3214 4.57482 12.2661 5.38449C12.6952 5.75226 13.3412 5.70253 13.709 5.27342C14.0767 4.84431 14.027 4.19831 13.5979 3.83054ZM2.69893 10.3091C2.69893 9.74394 3.15707 9.28579 3.72222 9.28579H5.25715C5.8223 9.28579 6.28045 8.82765 6.28045 8.2625C6.28045 7.69735 5.8223 7.23921 5.25715 7.23921H3.72222C2.02677 7.23921 0.652344 8.61364 0.652344 10.3091V13.379C0.652344 15.0744 2.02677 16.4488 3.72222 16.4488H13.9551C15.6506 16.4488 17.025 15.0744 17.025 13.379V10.3091C17.025 8.61364 15.6506 7.23921 13.9551 7.23921H12.4202C11.855 7.23921 11.3969 7.69735 11.3969 8.2625C11.3969 8.82765 11.855 9.28579 12.4202 9.28579H13.9551C14.5203 9.28579 14.9784 9.74394 14.9784 10.3091V13.379C14.9784 13.9441 14.5203 14.4022 13.9551 14.4022H3.72222C3.15707 14.4022 2.69893 13.9441 2.69893 13.379V10.3091Z" fill="#0F3659"/>
</svg>