<svg xmlns="http://www.w3.org/2000/svg" width="29" height="30" viewBox="0 0 29 30" fill="none">
  <path fill-rule="evenodd" clip-rule="evenodd" d="M19.515 20.578L23.6041 15.8069C23.7994 15.5841 23.8993 15.3029 23.8994 15.0202C23.8995 14.8268 23.8529 14.6326 23.7582 14.4561C23.7161 14.3774 23.6647 14.3027 23.6041 14.2335L19.515 9.46239C19.0855 8.96127 18.3311 8.90319 17.83 9.33268C17.3289 9.76217 17.2708 10.5166 17.7003 11.0177L20.1063 13.8251L10.8514 13.8251C10.1914 13.8251 9.65634 14.3601 9.65634 15.0201C9.65634 15.6801 10.1914 16.2151 10.8514 16.2151L20.1065 16.2151L17.7003 19.0227C17.2708 19.5238 17.3289 20.2782 17.83 20.7077C18.3311 21.1372 19.0855 21.0791 19.515 20.578ZM11.9492 7.84999C12.6092 7.84999 13.1443 8.38502 13.1443 9.04501L13.1443 10.8375C13.1443 11.4975 13.6793 12.0326 14.3393 12.0326C14.9993 12.0326 15.5343 11.4975 15.5343 10.8375L15.5343 9.04501C15.5343 7.06504 13.9292 5.45996 11.9492 5.45996L8.3642 5.45996C6.38423 5.45996 4.77915 7.06504 4.77915 9.04501L4.77915 20.9952C4.77915 22.9751 6.38423 24.5802 8.3642 24.5802L11.9492 24.5802C13.9292 24.5802 15.5343 22.9751 15.5343 20.9952L15.5343 19.2027C15.5343 18.5427 14.9993 18.0076 14.3393 18.0076C13.6793 18.0076 13.1443 18.5427 13.1443 19.2027L13.1443 20.9952C13.1443 21.6552 12.6092 22.1902 11.9492 22.1902L8.3642 22.1902C7.70421 22.1902 7.16918 21.6552 7.16918 20.9952L7.16918 9.04501C7.16918 8.38502 7.70421 7.84999 8.3642 7.84999L11.9492 7.84999Z" fill="white"/>
</svg>