<svg xmlns="http://www.w3.org/2000/svg" width="24" height="25" viewBox="0 0 24 25" fill="none">
  <path fill-rule="evenodd" clip-rule="evenodd" d="M16.334 3.073H7.665C4.644 3.073 2.75 5.212 2.75 8.239V16.407C2.75 19.434 4.635 21.573 7.665 21.573H16.333C19.364 21.573 21.25 19.434 21.25 16.407V8.239C21.25 5.212 19.364 3.073 16.334 3.073Z" stroke="white" stroke-width="1.5" stroke-linecap="round" stroke-linejoin="round"/>
  <path fill-rule="evenodd" clip-rule="evenodd" d="M10.6884 12.3229C10.6884 13.3459 9.85938 14.1749 8.83637 14.1749C7.81337 14.1749 6.98438 13.3459 6.98438 12.3229C6.98438 11.2999 7.81337 10.4709 8.83637 10.4709H8.83938C9.86038 10.4719 10.6884 11.3009 10.6884 12.3229Z" stroke="white" stroke-width="1.5" stroke-linecap="round" stroke-linejoin="round"/>
  <path d="M10.6914 12.323H17.0094V14.175" stroke="white" stroke-width="1.5" stroke-linecap="round" stroke-linejoin="round"/>
  <path d="M14.1816 14.175V12.323" stroke="white" stroke-width="1.5" stroke-linecap="round" stroke-linejoin="round"/>
</svg>