<svg xmlns="http://www.w3.org/2000/svg" width="29" height="30" viewBox="0 0 29 30" fill="none">
  <path d="M22.7072 7.85411H20.3169C20.3169 4.50772 17.6876 1.87842 14.3412 1.87842C10.9948 1.87842 8.36552 4.50772 8.36552 7.85411H5.97524C4.66059 7.85411 3.58496 8.92974 3.58496 10.2444V24.5861C3.58496 25.9007 4.66059 26.9763 5.97524 26.9763H22.7072C24.0218 26.9763 25.0975 25.9007 25.0975 24.5861V10.2444C25.0975 8.92974 24.0218 7.85411 22.7072 7.85411ZM14.3412 4.2687C16.3729 4.2687 17.9266 5.82238 17.9266 7.85411H10.7558C10.7558 5.82238 12.3095 4.2687 14.3412 4.2687ZM22.7072 24.5861H5.97524V10.2444H22.7072V24.5861ZM14.3412 15.0249C12.3095 15.0249 10.7558 13.4713 10.7558 11.4395H8.36552C8.36552 14.7859 10.9948 17.4152 14.3412 17.4152C17.6876 17.4152 20.3169 14.7859 20.3169 11.4395H17.9266C17.9266 13.4713 16.3729 15.0249 14.3412 15.0249Z" fill="white"/>
</svg>
