<svg xmlns="http://www.w3.org/2000/svg" width="16" height="15" viewBox="0 0 16 15" fill="none">
  <path fill-rule="evenodd" clip-rule="evenodd" d="M2.07422 0.519531C1.17676 0.519531 0.449219 1.23909 0.449219 2.12667V13.3767C0.449219 14.2643 1.17676 14.9838 2.07422 14.9838H13.4492C14.3467 14.9838 15.0742 14.2643 15.0742 13.3767V2.12667C15.0742 1.23909 14.3467 0.519531 13.4492 0.519531H2.07422ZM4.51172 8.55525C4.51172 8.11143 4.14795 7.75167 3.69922 7.75167C3.25049 7.75167 2.88672 8.11143 2.88672 8.55525V11.7695C2.88672 12.2134 3.25049 12.5731 3.69922 12.5731C4.14795 12.5731 4.51172 12.2134 4.51172 11.7695V8.55525ZM7.76172 5.34096C8.21045 5.34096 8.57422 5.70071 8.57422 6.14453V11.7695C8.57422 12.2134 8.21045 12.5731 7.76172 12.5731C7.31299 12.5731 6.94922 12.2134 6.94922 11.7695V6.14453C6.94922 5.70071 7.31299 5.34096 7.76172 5.34096ZM12.6367 3.73382C12.6367 3.29 12.273 2.93025 11.8242 2.93025C11.3755 2.93025 11.0117 3.29 11.0117 3.73382V11.7695C11.0117 12.2134 11.3755 12.5731 11.8242 12.5731C12.273 12.5731 12.6367 12.2134 12.6367 11.7695V3.73382Z" fill="white"/>
</svg>