<svg xmlns="http://www.w3.org/2000/svg" width="24" height="25" viewBox="0 0 24 25" fill="none">
  <path d="M12.3413 7.55999C13.6091 7.55999 14.8249 8.0636 15.7213 8.96004C16.6178 9.85648 17.1214 11.0723 17.1214 12.3401C17.1214 13.6078 16.6178 14.8236 15.7213 15.7201C14.8249 16.6165 13.6091 17.1201 12.3413 17.1201C11.0736 17.1201 9.85775 16.6165 8.96131 15.7201C8.06487 14.8236 7.56126 13.6078 7.56126 12.3401C7.56126 11.0723 8.06487 9.85648 8.96131 8.96004C9.85775 8.0636 11.0736 7.55999 12.3413 7.55999ZM12.3413 9.95003C11.7075 9.95003 11.0995 10.2018 10.6513 10.6501C10.2031 11.0983 9.95129 11.7062 9.95129 12.3401C9.95129 12.9739 10.2031 13.5818 10.6513 14.0301C11.0995 14.4783 11.7075 14.7301 12.3413 14.7301C12.9752 14.7301 13.5831 14.4783 14.0313 14.0301C14.4796 13.5818 14.7314 12.9739 14.7314 12.3401C14.7314 11.7062 14.4796 11.0983 14.0313 10.6501C13.5831 10.2018 12.9752 9.95003 12.3413 9.95003ZM9.95129 24.2902C9.65254 24.2902 9.40159 24.0751 9.35379 23.7883L8.91163 20.6215C8.15877 20.3228 7.51346 19.9165 6.89205 19.4385L3.91646 20.6454C3.65356 20.741 3.3309 20.6454 3.1875 20.3825L0.797468 16.2478C0.724328 16.1246 0.698543 15.9791 0.724936 15.8383C0.751329 15.6976 0.828092 15.5712 0.94087 15.483L3.46236 13.4992L3.3787 12.3401L3.46236 11.145L0.94087 9.19716C0.828092 9.10889 0.751329 8.98256 0.724936 8.8418C0.698543 8.70104 0.724328 8.55548 0.797468 8.43235L3.1875 4.2976C3.3309 4.03469 3.65356 3.92714 3.91646 4.03469L6.89205 5.22971C7.51346 4.76365 8.15877 4.35735 8.91163 4.05859L9.35379 0.8918C9.40159 0.604996 9.65254 0.389893 9.95129 0.389893H14.7314C15.0301 0.389893 15.2811 0.604996 15.3289 0.8918L15.771 4.05859C16.5239 4.35735 17.1692 4.76365 17.7906 5.22971L20.7662 4.03469C21.0291 3.92714 21.3518 4.03469 21.4952 4.2976L23.8852 8.43235C24.0405 8.69526 23.9688 9.01791 23.7418 9.19716L21.2203 11.145L21.304 12.3401L21.2203 13.5351L23.7418 15.483C23.9688 15.6622 24.0405 15.9849 23.8852 16.2478L21.4952 20.3825C21.3518 20.6454 21.0291 20.753 20.7662 20.6454L17.7906 19.4504C17.1692 19.9165 16.5239 20.3228 15.771 20.6215L15.3289 23.7883C15.2811 24.0751 15.0301 24.2902 14.7314 24.2902H9.95129ZM11.4451 2.77993L11.0029 5.89892C9.56889 6.19767 8.30217 6.96248 7.38201 8.02605L4.50202 6.78323L3.60576 8.33675L6.12724 10.189C5.64924 11.5832 5.64924 13.0969 6.12724 14.4911L3.59381 16.3553L4.49007 17.9088L7.39396 16.666C8.31412 17.7176 9.56889 18.4824 10.991 18.7692L11.4331 21.9002H13.2495L13.6917 18.7812C15.1138 18.4824 16.3685 17.7176 17.2887 16.666L20.1926 17.9088L21.0888 16.3553L18.5554 14.503C19.0334 13.1049 19.0334 11.5872 18.5554 10.189L21.0769 8.33675L20.1806 6.78323L17.3006 8.02605C16.3616 6.93897 15.0879 6.19489 13.6797 5.91087L13.2376 2.77993H11.4451Z" fill="white"/>
</svg>