<svg xmlns="http://www.w3.org/2000/svg" width="30" height="29" viewBox="0 0 30 29" fill="none">
  <path d="M4.09766 3.73877H6.48793L6.96599 6.12905M8.87821 15.6902H20.8296L25.6102 6.12905H6.96599M8.87821 15.6902L6.96599 6.12905M8.87821 15.6902L6.13789 18.4305C5.38499 19.1834 5.91822 20.4707 6.98298 20.4707H20.8296M20.8296 20.4707C19.5095 20.4707 18.4393 21.5409 18.4393 22.861C18.4393 24.1811 19.5095 25.2513 20.8296 25.2513C22.1497 25.2513 23.2199 24.1811 23.2199 22.861C23.2199 21.5409 22.1497 20.4707 20.8296 20.4707ZM11.2685 22.861C11.2685 24.1811 10.1983 25.2513 8.87821 25.2513C7.5581 25.2513 6.48793 24.1811 6.48793 22.861C6.48793 21.5409 7.5581 20.4707 8.87821 20.4707C10.1983 20.4707 11.2685 21.5409 11.2685 22.861Z" stroke="white" stroke-width="1.79271" stroke-linecap="round" stroke-linejoin="round"/>
  </svg>
