<svg xmlns="http://www.w3.org/2000/svg" width="14" height="13" viewBox="0 0 14 13" fill="none">
  <path fill-rule="evenodd" clip-rule="evenodd" d="M11.1909 0.533325L8.50967 0.912153C8.10005 0.970029 7.76537 1.16313 7.52639 1.43001L1.27031 7.61734C0.635673 8.245 0.635647 9.26261 1.2703 9.8903L3.56851 12.1632C4.20317 12.7909 5.23209 12.7909 5.86672 12.1632L12.1228 5.97591C12.3926 5.73956 12.5879 5.40856 12.6464 5.00344L13.0294 2.35166C13.1827 1.29099 12.2634 0.381753 11.1909 0.533325ZM9.31403 4.20792C9.63132 4.52172 10.1458 4.52175 10.4631 4.20792C10.7805 3.89408 10.7804 3.38525 10.4631 3.07144C10.1458 2.75763 9.63135 2.75761 9.31403 3.07144C8.99671 3.38527 8.99673 3.89411 9.31403 4.20792Z" fill="white"/>
</svg>