<svg
          xmlns="http://www.w3.org/2000/svg"
          width="30"
          height="29"
          viewBox="0 0 23 22"
          fill="none"
        >
          <g clip-path="url(#clip0_3445_26335)">
            <path
              d="M11.7245 0.697266C9.82543 0.698783 7.96534 1.23656 6.3584 2.24868H17.076C15.4733 1.23921 13.6187 0.701545 11.7245 0.697266Z"
              fill="#B22234"
            />
            <path
              d="M6.35855 2.24878C5.66632 2.687 5.03006 3.20795 4.46387 3.80011H18.9974C18.423 3.20624 17.7777 2.68523 17.0762 2.24878H6.35855Z"
              fill="white"
            />
            <path
              d="M4.46389 3.7998C4.0062 4.27564 3.59635 4.79527 3.24023 5.35122H20.2208C19.8648 4.79528 19.455 4.27565 18.9974 3.7998H4.46389Z"
              fill="#B22234"
            />
            <path
              d="M3.24105 5.35156C2.92277 5.84382 2.64802 6.3629 2.41992 6.90289H21.0238C20.8017 6.36356 20.5333 5.8445 20.2216 5.35156H3.24105Z"
              fill="white"
            />
            <path
              d="M2.41957 6.90283C2.21309 7.40579 2.04763 7.92462 1.9248 8.45425H21.5248C21.3998 7.92442 21.2321 7.40559 21.0234 6.90283H2.41957Z"
              fill="#B22234"
            />
            <path
              d="M1.92546 8.4541C1.80365 8.96409 1.7218 9.4828 1.68066 10.0055H21.777C21.7336 9.48262 21.6495 8.96391 21.5255 8.4541H1.92546Z"
              fill="white"
            />
            <path
              d="M1.67944 10.0056C1.65655 10.2636 1.6436 10.5223 1.64062 10.7813C1.64161 11.0402 1.65256 11.2989 1.67345 11.5569H21.7698C21.7927 11.299 21.8056 11.0402 21.8086 10.7813C21.8076 10.5224 21.7967 10.2637 21.7758 10.0056H1.67944Z"
              fill="#B22234"
            />
            <path
              d="M1.67383 11.5569C1.71718 12.0798 1.80128 12.5985 1.92535 13.1083H21.5254C21.6472 12.5983 21.729 12.0796 21.7702 11.5569H1.67383Z"
              fill="white"
            />
            <path
              d="M1.92578 13.1084C2.05077 13.6382 2.21845 14.1571 2.42719 14.6598H21.031C21.2375 14.1569 21.403 13.638 21.5258 13.1084H1.92578Z"
              fill="#B22234"
            />
            <path
              d="M2.42676 14.6597C2.64878 15.199 2.91718 15.7181 3.22893 16.211H20.2095C20.5277 15.7187 20.8025 15.1997 21.0306 14.6597H2.42676Z"
              fill="white"
            />
            <path
              d="M3.22852 16.2109C3.58452 16.7669 3.99427 17.2865 4.45184 17.7624H18.9854C19.4431 17.2865 19.8529 16.7669 20.209 16.2109H3.22852Z"
              fill="#B22234"
            />
            <path
              d="M4.45312 17.7625C5.02758 18.3563 5.67284 18.8773 6.3744 19.3138H17.092C17.7842 18.8756 18.4205 18.3546 18.9867 17.7625H4.45312Z"
              fill="white"
            />
            <path
              d="M6.37305 19.314C7.97576 20.3234 9.83038 20.8611 11.7245 20.8654C13.6236 20.8639 15.4837 20.3261 17.0906 19.314H6.37305Z"
              fill="#B22234"
            />
            <path
              d="M11.7246 0.697266C9.05017 0.697266 6.48527 1.75968 4.59416 3.6508C2.70304 5.54191 1.64063 8.10681 1.64062 10.7812C1.64194 11.0477 1.65383 11.314 1.67624 11.5796H12.5229V0.737231C12.2575 0.713364 11.9911 0.700031 11.7246 0.697266Z"
              fill="#3C3B6E"
            />
            <path
              d="M8.11621 1.37701C7.98185 1.42606 7.84855 1.47796 7.7164 1.53268L7.8637 1.64462L7.76407 1.96655L8.02799 1.76952L8.29962 1.97599L8.19762 1.64281L8.46925 1.44003H8.13549L8.11621 1.37701ZM9.82672 1.10156L9.72194 1.44H9.38935L9.65857 1.64464L9.55892 1.96653L9.82282 1.76951L10.0945 1.97597L9.99247 1.64285L10.2641 1.44H9.93036L9.82672 1.10156ZM11.6216 1.10156L11.5168 1.44H11.1842L11.4534 1.64464L11.3538 1.96653L11.6177 1.76951L11.8893 1.97597L11.7873 1.64285L12.0589 1.44H11.7252L11.6216 1.10156ZM5.52168 2.84595C5.47427 2.88131 5.42716 2.91709 5.38037 2.95329L5.60736 3.12587L5.52168 2.84595ZM7.13444 2.25143L7.02967 2.58987H6.69708L6.9663 2.79451L6.86665 3.1164L7.13055 2.91938L7.40221 3.12584L7.3002 2.79272L7.57182 2.58987H7.23809L7.13444 2.25143ZM8.92929 2.25143L8.82452 2.58987H8.49192L8.76115 2.79451L8.6615 3.1164L8.9254 2.91938L9.19705 3.12584L9.09505 2.79272L9.36666 2.58987H9.03294L8.92929 2.25143ZM10.7241 2.25143L10.6194 2.58987H10.2868L10.556 2.79451L10.4563 3.1164L10.7202 2.91938L10.9919 3.12584L10.8899 2.79272L11.1615 2.58987H10.8278L10.7241 2.25143ZM4.53749 3.71262C4.43803 3.81791 4.34084 3.92533 4.246 4.0348L4.17436 4.26622L4.43828 4.06919L4.70991 4.27566L4.60791 3.94256L4.87954 3.7397H4.54578L4.53749 3.71262ZM6.23702 3.40126L6.13225 3.7397H5.79965L6.06888 3.94433L5.96923 4.26622L6.23313 4.0692L6.50478 4.27567L6.40277 3.94254L6.6744 3.7397H6.34067L6.23702 3.40126ZM8.03187 3.40126L7.92709 3.7397H7.5945L7.86372 3.94433L7.76407 4.26622L8.02798 4.0692L8.29963 4.27567L8.19762 3.94254L8.46924 3.7397H8.13551L8.03187 3.40126ZM9.82672 3.40126L9.72194 3.7397H9.38935L9.65857 3.94433L9.55892 4.26622L9.82282 4.0692L10.0945 4.27567L9.99247 3.94254L10.2641 3.7397H9.93036L9.82672 3.40126ZM11.6216 3.40126L11.5168 3.7397H11.1842L11.4534 3.94433L11.3538 4.26622L11.6177 4.0692L11.8893 4.27567L11.7873 3.94254L12.0589 3.7397H11.7252L11.6216 3.40126ZM3.62093 4.7998C3.52801 4.92362 3.43797 5.04957 3.35085 5.17754L3.277 5.4161L3.54083 5.21906L3.81254 5.42554L3.71054 5.09244L3.98209 4.88958H3.64842L3.62093 4.7998ZM5.3396 4.55112L5.23482 4.88957H4.90223L5.17145 5.0942L5.0718 5.41609L5.33571 5.21907L5.60736 5.42554L5.50535 5.09241L5.77697 4.88957H5.44324L5.3396 4.55112ZM7.13444 4.55112L7.02967 4.88957H6.69708L6.9663 5.0942L6.86665 5.41609L7.13055 5.21907L7.40221 5.42554L7.3002 5.09241L7.57182 4.88957H7.23809L7.13444 4.55112ZM8.92929 4.55112L8.82452 4.88957H8.49192L8.76115 5.0942L8.6615 5.41609L8.9254 5.21907L9.19705 5.42554L9.09505 5.09241L9.36666 4.88957H9.03294L8.92929 4.55112ZM10.7241 4.55112L10.6194 4.88957H10.2868L10.556 5.0942L10.4563 5.41609L10.7202 5.21907L10.9919 5.42554L10.8899 5.09241L11.1615 4.88957H10.8278L10.7241 4.55112ZM2.83443 6.03945C2.77416 6.15241 2.71605 6.2665 2.66012 6.38166L2.9151 6.57541L2.81309 6.24232L3.08472 6.03945H2.83443ZM4.44218 5.70099L4.3374 6.03944H4.00481L4.27403 6.24407L4.17439 6.56596L4.43829 6.36894L4.70994 6.57541L4.60793 6.24228L4.87955 6.03944H4.54582L4.44218 5.70099ZM6.23702 5.70099L6.13225 6.03944H5.79965L6.06888 6.24407L5.96923 6.56596L6.23313 6.36894L6.50478 6.57541L6.40277 6.24228L6.6744 6.03944H6.34067L6.23702 5.70099ZM8.03187 5.70099L7.92709 6.03944H7.5945L7.86372 6.24407L7.76407 6.56596L8.02798 6.36894L8.29963 6.57541L8.19762 6.24228L8.46924 6.03944H8.13551L8.03187 5.70099ZM9.82672 5.70099L9.72194 6.03944H9.38935L9.65857 6.24407L9.55892 6.56596L9.82282 6.36894L10.0945 6.57541L9.99247 6.24228L10.2641 6.03944H9.93036L9.82672 5.70099ZM11.6216 5.70099L11.5168 6.03944H11.1842L11.4534 6.24407L11.3538 6.56596L11.6177 6.36894L11.8893 6.57541L11.7873 6.24228L12.0589 6.03944H11.7252L11.6216 5.70099ZM3.54476 6.85082L3.43998 7.18926H3.10738L3.37661 7.39389L3.27696 7.71579L3.54086 7.51876L3.81252 7.72523L3.71051 7.3921L3.98213 7.18926H3.6484L3.54476 6.85082ZM5.3396 6.85082L5.23482 7.18926H4.90223L5.17145 7.39389L5.0718 7.71579L5.33571 7.51876L5.60736 7.72523L5.50535 7.3921L5.77697 7.18926H5.44324L5.3396 6.85082ZM7.13444 6.85082L7.02967 7.18926H6.69708L6.9663 7.39389L6.86665 7.71579L7.13055 7.51876L7.40221 7.72523L7.3002 7.3921L7.57182 7.18926H7.23809L7.13444 6.85082ZM8.92929 6.85082L8.82452 7.18926H8.49192L8.76115 7.39389L8.6615 7.71579L8.9254 7.51876L9.19705 7.72523L9.09505 7.3921L9.36666 7.18926H9.03294L8.92929 6.85082ZM10.7241 6.85082L10.6194 7.18926H10.2868L10.556 7.39389L10.4563 7.71579L10.7202 7.51876L10.9919 7.72523L10.8899 7.3921L11.1615 7.18926H10.8278L10.7241 6.85082ZM2.64733 8.00069L2.54256 8.33913H2.20996L2.47919 8.54376L2.37954 8.86566L2.64344 8.66863L2.91509 8.8751L2.81308 8.54197L3.0847 8.33913H2.75098L2.64733 8.00069ZM4.44218 8.00069L4.3374 8.33913H4.00481L4.27403 8.54376L4.17439 8.86566L4.43829 8.66863L4.70994 8.8751L4.60793 8.54197L4.87955 8.33913H4.54582L4.44218 8.00069ZM6.23702 8.00069L6.13225 8.33913H5.79965L6.06888 8.54376L5.96923 8.86566L6.23313 8.66863L6.50478 8.8751L6.40277 8.54197L6.6744 8.33913H6.34067L6.23702 8.00069ZM8.03187 8.00069L7.92709 8.33913H7.5945L7.86372 8.54376L7.76407 8.86566L8.02798 8.66863L8.29963 8.8751L8.19762 8.54197L8.46924 8.33913H8.13551L8.03187 8.00069ZM9.82672 8.00069L9.72194 8.33913H9.38935L9.65857 8.54376L9.55892 8.86566L9.82282 8.66863L10.0945 8.8751L9.99247 8.54197L10.2641 8.33913H9.93036L9.82672 8.00069ZM11.6216 8.00069L11.5168 8.33913H11.1842L11.4534 8.54376L11.3538 8.86566L11.6177 8.66863L11.8893 8.8751L11.7873 8.54197L12.0589 8.33913H11.7252L11.6216 8.00069ZM3.54476 9.15056L3.43998 9.489H3.10738L3.37661 9.69363L3.27696 10.0155L3.54086 9.8185L3.81252 10.025L3.71051 9.69184L3.98213 9.489H3.6484L3.54476 9.15056ZM5.3396 9.15056L5.23482 9.489H4.90223L5.17145 9.69363L5.0718 10.0155L5.33571 9.8185L5.60736 10.025L5.50535 9.69184L5.77697 9.489H5.44324L5.3396 9.15056ZM7.13444 9.15056L7.02967 9.489H6.69708L6.9663 9.69363L6.86665 10.0155L7.13055 9.8185L7.40221 10.025L7.3002 9.69184L7.57182 9.489H7.23809L7.13444 9.15056ZM8.92929 9.15056L8.82452 9.489H8.49192L8.76115 9.69363L8.6615 10.0155L8.9254 9.8185L9.19705 10.025L9.09505 9.69184L9.36666 9.489H9.03294L8.92929 9.15056ZM10.7241 9.15056L10.6194 9.489H10.2868L10.556 9.69363L10.4563 10.0155L10.7202 9.8185L10.9919 10.025L10.8899 9.69184L11.1615 9.489H10.8278L10.7241 9.15056ZM2.64733 10.3004L2.54256 10.6388H2.20996L2.47919 10.8435L2.37954 11.1653L2.64344 10.9683L2.91509 11.1748L2.81308 10.8417L3.0847 10.6388H2.75098L2.64733 10.3004ZM4.44218 10.3004L4.3374 10.6388H4.00481L4.27403 10.8435L4.17439 11.1653L4.43829 10.9683L4.70994 11.1748L4.60793 10.8417L4.87955 10.6388H4.54582L4.44218 10.3004ZM6.23702 10.3004L6.13225 10.6388H5.79965L6.06888 10.8435L5.96923 11.1653L6.23313 10.9683L6.50478 11.1748L6.40277 10.8417L6.6744 10.6388H6.34067L6.23702 10.3004ZM8.03187 10.3004L7.92709 10.6388H7.5945L7.86372 10.8435L7.76407 11.1653L8.02798 10.9683L8.29963 11.1748L8.19762 10.8417L8.46924 10.6388H8.13551L8.03187 10.3004ZM9.82672 10.3004L9.72194 10.6388H9.38935L9.65857 10.8435L9.55892 11.1653L9.82282 10.9683L10.0945 11.1748L9.99247 10.8417L10.2641 10.6388H9.93036L9.82672 10.3004ZM11.6216 10.3004L11.5168 10.6388H11.1842L11.4534 10.8435L11.3538 11.1653L11.6177 10.9683L11.8893 11.1748L11.7873 10.8417L12.0589 10.6388H11.7252L11.6216 10.3004Z"
              fill="white"
            />
          </g>
          <defs>
            <clipPath id="clip0_3445_26335">
              <rect
                width="21.5125"
                height="21.5125"
                fill="white"
                transform="translate(0.96875 0.0249023)"
              />
            </clipPath>
          </defs>
        </svg>
